# xmcd
# 
# Track frame offsets:
#     150
#     19344
#     35715
#     59187
#     75300
#     86934
#     104770
#     121434
#     140609
#     160403
#     180009
#     198861
#     222297
# 
# Disc length: 3167
# 
# Revision: 1
# Processed by: cddbd v1.5.2PL0 Copyright (c) Steve Scherf et al.
# Submitted via: fre:ac v1.0.31
# 
DISCID=bc0c5d0d
DTITLE=Shiggy Jr. - ALL ABOUT POP
DYEAR=2016
DGENRE=JPop
TTITLE0=サマータイムラブ
TTITLE1=恋したらベイベー
TTITLE2=ホットチリソース
TTITLE3=I like it
TTITLE4=dynamite
TTITLE5=GHOST PARTY
TTITLE6=HOME
TTITLE7=手紙
TTITLE8=スタート
TTITLE9=keep on raining
TTITLE10=Beautiful Life
TTITLE11=groove tonight
TTITLE12=LISTEN TO THE MUSIC（ALL ABOUT POP ver.）
EXTD=
EXTT0=
EXTT1=
EXTT2=
EXTT3=
EXTT4=
EXTT5=
EXTT6=
EXTT7=
EXTT8=
EXTT9=
EXTT10=
EXTT11=
EXTT12=
PLAYORDER=
